<svg width="24" height="24" viewBox="0 0 24 24" fill="none" xmlns="http://www.w3.org/2000/svg">
<mask id="mask0_5_156" style="mask-type:alpha" maskUnits="userSpaceOnUse" x="0" y="0" width="24" height="24">
<rect width="24" height="24" fill="#D9D9D9"/>
</mask>
<g mask="url(#mask0_5_156)">
<path d="M3.27502 17.7L7.40002 6.70001H9.37502L13.5 17.7H11.6L10.625 14.9H6.17502L5.17502 17.7H3.27502ZM6.75002 13.3H10.025L8.42502 8.75001H8.32503L6.75002 13.3ZM16.625 17.95C15.775 17.95 15.1 17.7208 14.6 17.2625C14.1 16.8042 13.85 16.2 13.85 15.45C13.85 14.7167 14.1375 14.1125 14.7125 13.6375C15.2875 13.1625 16.025 12.925 16.925 12.925C17.3084 12.925 17.6834 12.9583 18.05 13.025C18.4167 13.0917 18.7334 13.1833 19 13.3V13C19 12.5167 18.8292 12.125 18.4875 11.825C18.1459 11.525 17.6917 11.375 17.125 11.375C16.7417 11.375 16.3917 11.4542 16.075 11.6125C15.7584 11.7708 15.4834 12 15.25 12.3L14.075 11.425C14.475 10.9417 14.9292 10.5833 15.4375 10.35C15.9459 10.1167 16.5167 10 17.15 10C18.3 10 19.1584 10.2708 19.725 10.8125C20.2917 11.3542 20.575 12.1667 20.575 13.25V17.7H19V16.775H18.9C18.6667 17.1583 18.35 17.45 17.95 17.65C17.55 17.85 17.1084 17.95 16.625 17.95ZM16.925 16.6C17.5084 16.6 18.0042 16.4 18.4125 16C18.8209 15.6 19.025 15.1333 19.025 14.6C18.7917 14.4667 18.5125 14.3625 18.1875 14.2875C17.8625 14.2125 17.5417 14.175 17.225 14.175C16.6917 14.175 16.275 14.2917 15.975 14.525C15.675 14.7583 15.525 15.0667 15.525 15.45C15.525 15.7833 15.6584 16.0583 15.925 16.275C16.1917 16.4917 16.525 16.6 16.925 16.6Z" fill="#202020"/>
</g>
</svg>
