<svg width="24" height="24" viewBox="0 0 24 24" fill="none" xmlns="http://www.w3.org/2000/svg">
<path d="M7.354 11.107V9.50202C7.354 9.40702 7.354 9.36902 7.478 9.36902C8.541 9.36902 9.405 9.30602 9.834 9.55902C10.264 9.81102 10.282 10.159 10.289 10.263C10.297 10.367 10.293 10.516 10.093 10.879C9.893 11.242 8.998 11.249 8.352 11.249H7.497C7.392 11.249 7.354 11.211 7.354 11.107ZM10.3 12.789C10.3989 12.9155 10.4694 13.0618 10.5069 13.2179C10.5444 13.374 10.5479 13.5363 10.5171 13.6939C10.4864 13.8515 10.4222 14.0007 10.3288 14.1313C10.2355 14.2619 10.1152 14.3709 9.976 14.451C9.77134 14.5369 9.55193 14.582 9.33 14.584H7.487C7.392 14.584 7.354 14.584 7.354 14.461V12.561C7.354 12.466 7.354 12.428 7.478 12.428H8.703C9.463 12.428 9.938 12.362 10.3 12.789Z" fill="#202020"/>
<path d="M16.989 11.909C16.9381 11.7888 16.8608 11.6816 16.7628 11.5954C16.6648 11.5092 16.5487 11.4462 16.423 11.411C16.1718 11.3425 15.909 11.328 15.6518 11.3685C15.3946 11.4091 15.149 11.5036 14.931 11.646C14.7136 11.8653 14.5732 12.1491 14.531 12.455C14.531 12.562 14.531 12.582 14.658 12.582H17.028C17.145 12.582 17.145 12.582 17.135 12.435C17.1236 12.2513 17.0745 12.072 16.989 11.909ZM16.989 11.909C16.9381 11.7888 16.8598 11.6816 16.7618 11.5954C16.6638 11.5092 16.5487 11.4462 16.423 11.411C16.1718 11.3425 15.908 11.328 15.6508 11.3685C15.3936 11.4091 15.149 11.5036 14.931 11.646C14.7136 11.8653 14.5722 12.1491 14.53 12.455C14.53 12.562 14.53 12.582 14.657 12.582H17.028C17.145 12.582 17.145 12.582 17.135 12.435C17.1236 12.2513 17.0725 12.072 16.987 11.909M18.1 2.5H6.4C5.36566 2.5 4.37368 2.91089 3.64228 3.64228C2.91089 4.37368 2.5 5.36566 2.5 6.4V18.1C2.5 19.1343 2.91089 20.1263 3.64228 20.8577C4.37368 21.5891 5.36566 22 6.4 22H18.1C19.1343 22 20.1263 21.5891 20.8577 20.8577C21.5891 20.1263 22 19.1343 22 18.1V6.4C22 5.36566 21.5891 4.37368 20.8577 3.64228C20.1263 2.91089 19.1343 2.5 18.1 2.5ZM14.278 8.71C14.278 8.633 14.278 8.603 14.366 8.603H17.525V9.423C17.525 9.423 17.528 9.481 17.476 9.481H14.415C14.278 9.481 14.278 9.481 14.278 9.345V8.71ZM11.353 15.877C10.153 16.53 8.136 16.267 5.747 16.267V8.184H9.559C10.534 8.184 11.694 8.428 12.006 9.461C12.168 9.91218 12.1582 10.4072 11.9783 10.8516C11.7984 11.296 11.4612 11.6585 11.031 11.87C11.4276 12.0167 11.7738 12.274 12.0287 12.6114C12.2836 12.9488 12.4365 13.3521 12.4693 13.7737C12.5021 14.1952 12.4135 14.6174 12.2139 14.9901C12.0143 15.3629 11.7121 15.6706 11.343 15.877H11.353ZM18.617 13.576H14.717C14.61 13.576 14.512 13.634 14.531 13.771C14.648 14.346 14.911 14.951 15.507 15.039C15.8217 15.1321 16.1585 15.1175 16.464 14.9973C16.7694 14.8772 17.026 14.6586 17.193 14.376C17.193 14.376 17.242 14.317 17.271 14.317H18.539C18.539 14.317 18.617 14.317 18.597 14.385C18.4642 14.7641 18.2662 15.117 18.012 15.428C17.673 15.7515 17.2641 15.9926 16.8169 16.1326C16.3697 16.2725 15.8962 16.3076 15.4333 16.2351C14.9704 16.1626 14.5303 15.9844 14.1474 15.7143C13.7644 15.4443 13.4488 15.0897 13.225 14.678C13.0867 14.4037 13.0009 14.1059 12.972 13.8C12.7981 13.0316 12.931 12.2256 13.3425 11.5538C13.754 10.8819 14.4115 10.3973 15.175 10.203C17.388 9.725 18.792 11.246 18.792 13.391C18.7953 13.4161 18.7928 13.4416 18.7846 13.4655C18.7765 13.4894 18.7629 13.5112 18.7451 13.5291C18.7272 13.5469 18.7054 13.5605 18.6815 13.5686C18.6576 13.5768 18.6321 13.5793 18.607 13.576H18.617ZM16.433 11.411C16.1818 11.3427 15.9191 11.3284 15.662 11.369C15.405 11.409 15.175 11.458 14.941 11.646C14.707 11.833 14.583 12.149 14.541 12.455C14.541 12.562 14.541 12.582 14.668 12.582H17.028C17.145 12.582 17.145 12.582 17.135 12.435C17.1236 12.2513 17.0745 12.072 16.989 11.909C16.9381 11.7888 16.8608 11.6816 16.7628 11.5954C16.6648 11.5092 16.5487 11.4462 16.423 11.411H16.433Z" fill="#202020"/>
</svg>
