<svg width="24" height="24" viewBox="0 0 24 24" fill="none" xmlns="http://www.w3.org/2000/svg">
<path d="M12 2C6.47563 2 2 6.47563 2 12C2 17.5244 6.47563 22 12 22C17.5244 22 22 17.5244 22 12C22 6.47563 17.5244 2 12 2ZM7.80062 8.4C8.42875 8.4 8.9175 8.85812 8.9725 9.39937C9.03188 9.8875 8.82937 10.3144 8.28937 10.5712C8.0025 10.7144 7.88875 10.7144 7.83 10.6294C7.80062 10.5712 7.83 10.5162 7.88812 10.4569C8.40312 10.0312 8.40312 9.68625 8.34375 9.20125C8.31437 8.88563 8.08687 8.68625 7.85875 8.68625C6.85625 8.68625 5.43063 10.9131 5.62875 12.5438C5.71688 13.1719 6.08812 13.9144 6.88562 13.9144C7.14313 13.9144 7.43 13.8294 7.68625 13.7163C8.10312 13.4944 8.35375 13.3256 8.60125 13.0487C8.53938 12.3094 9.18687 11.3431 10.1438 11.3431C10.5737 11.3431 10.9156 11.5156 10.9444 11.8312C11 12.2581 10.6287 12.3162 10.515 12.3162C10.4006 12.3162 10.1994 12.2869 10.1994 12.1731C10.1737 12.0588 10.4563 12.115 10.43 11.8575C10.4006 11.685 10.2281 11.63 10.0594 11.63C9.45688 11.63 9.115 12.46 9.2 12.9706C9.22938 13.2013 9.3425 13.43 9.57438 13.43C9.74375 13.43 10.0013 13.1725 10.085 12.8019C10.1431 12.5444 10.3719 12.3719 10.5731 12.3719C10.6581 12.3719 10.7131 12.4012 10.7425 12.515V12.6294C10.7169 12.7437 10.6281 13.0887 10.6581 13.1725C10.6581 13.2319 10.6875 13.3156 10.8006 13.3156C10.8756 13.3156 11.1625 13.1656 11.4487 12.9312C11.5431 12.4394 11.6569 11.8506 11.6569 11.8019C11.6862 11.6 11.7712 11.4012 12.1713 11.4012C12.2587 11.4012 12.3144 11.4306 12.3438 11.5444V11.6588L12.2294 12.1731C12.6013 11.6881 13.1444 11.3463 13.4862 11.3463C13.6294 11.3463 13.7438 11.4306 13.7438 11.5737C13.7438 11.6587 13.7437 11.8019 13.6844 11.9456C13.5712 12.2581 13.4275 12.7462 13.3425 13.1725C13.3425 13.2869 13.3719 13.4006 13.515 13.4006C13.6581 13.4006 14.085 13.2312 14.4269 12.7725L14.4337 12.7694C14.4337 12.7138 14.4269 12.6587 14.4269 12.6038C14.4269 12.2587 14.4563 11.9756 14.515 11.7737C14.5731 11.5456 14.8569 11.3469 15.0294 11.3469C15.1138 11.3469 15.2019 11.4019 15.2019 11.4869C15.2019 11.5162 15.2019 11.5744 15.1725 11.6013C15.0581 11.9756 14.97 12.3169 14.97 12.6588C14.97 12.8606 15 13.1438 15.0581 13.3163C15.0581 13.3456 15.0838 13.3744 15.1131 13.3744C15.1725 13.3744 15.5725 13.0037 15.8556 12.515C15.5981 12.3456 15.455 12.0594 15.455 11.7175C15.455 11.1156 15.83 10.8025 16.1719 10.8025C16.4587 10.8025 16.6862 11.0019 16.6862 11.4019C16.6862 11.6594 16.6013 11.9462 16.4588 12.2025H16.5431C16.7256 12.2094 16.905 12.1344 17.0281 12.0044C17.0553 11.9609 17.0953 11.9268 17.1425 11.9069C17.4225 11.5519 17.8325 11.2888 18.3175 11.2888C18.7175 11.2888 19.0856 11.4612 19.115 11.7737C19.1731 12.2031 18.7994 12.2881 18.685 12.2881C18.5719 12.2881 18.37 12.2587 18.37 12.145C18.37 12.0312 18.6269 12.0869 18.6006 11.8325C18.5713 11.66 18.3988 11.6019 18.2262 11.6019C17.6562 11.6019 17.2856 12.3438 17.3694 12.9462C17.3987 13.1737 17.5125 13.4313 17.7413 13.4313C17.9138 13.4313 18.1706 13.1737 18.2844 12.8031C18.3394 12.5756 18.5712 12.3731 18.7694 12.3731C18.8569 12.3731 18.9125 12.4025 18.9419 12.5163C18.9419 12.5756 18.9419 12.6888 18.8275 13.0606C18.6844 13.3175 18.6844 13.4606 18.7144 13.575C18.74 13.8025 18.8544 13.975 18.9712 14.06C18.9921 14.0865 19.0107 14.1147 19.0269 14.1444C19.0269 14.2037 18.9969 14.2619 18.9125 14.2619C18.8831 14.2619 18.8569 14.2619 18.8275 14.2325C18.3981 14.06 18.2256 13.7731 18.17 13.4869C17.9975 13.6888 17.7994 13.8025 17.5681 13.8025C17.1962 13.8025 16.8287 13.4606 16.7706 13.0306C16.7529 12.8483 16.7739 12.6642 16.8325 12.4906C16.6631 12.5981 16.4806 12.66 16.3119 12.66H16.1719C15.7975 13.2031 15.3969 13.575 15.1138 13.7444C15.0162 13.7963 14.9085 13.8262 14.7981 13.8319C14.7431 13.8319 14.6556 13.8025 14.6287 13.7444C14.5481 13.6175 14.4987 13.4187 14.4662 13.1912C14.0656 13.6269 13.5119 13.8612 13.2556 13.8612C12.9688 13.8612 12.8 13.6888 12.7706 13.4031V13.0906C12.855 12.4625 13.0863 12.0881 13.0863 11.9738C13.0846 11.9587 13.0778 11.9447 13.0669 11.9341C13.0561 11.9235 13.042 11.917 13.0269 11.9156C12.8287 11.9156 12.1712 12.6025 12.0569 13.0612L11.9694 13.4319C11.9137 13.6888 11.6569 13.8612 11.4844 13.8612C11.3994 13.8612 11.3413 13.8319 11.315 13.7188V13.6044L11.3506 13.4094C10.9888 13.6662 10.6275 13.8319 10.455 13.8319C10.1981 13.8319 10.055 13.6888 10.0294 13.4869C9.85687 13.7188 9.6575 13.8319 9.40125 13.8319C9.10437 13.8319 8.81875 13.63 8.68188 13.3375C8.47625 13.5681 8.245 13.7994 7.97188 13.975C7.57188 14.2325 7.11625 14.4306 6.57188 14.4306C6.08687 14.4306 5.6575 14.1731 5.42937 13.9456C5.08437 13.63 4.88625 13.145 4.85687 12.6887C4.6875 11.2894 5.54375 9.48875 6.855 8.68813C7.17063 8.51562 7.48688 8.4025 7.79938 8.4025L7.80062 8.4ZM15.9419 11.1444C15.8575 11.1444 15.7994 11.2875 15.7994 11.4269C15.7994 11.6588 15.9125 11.915 16.0562 12.0588C16.1136 11.9023 16.1434 11.7372 16.1444 11.5706C16.1444 11.2881 16.03 11.145 15.9419 11.145V11.1444Z" fill="#202020"/>
</svg>
