<svg width="24" height="24" viewBox="0 0 24 24" fill="none" xmlns="http://www.w3.org/2000/svg">
<path d="M5.42067 5.42162C5.42067 5.42162 9.63131 3.31755 11.7362 2.26427C12.1196 2.07611 12.5436 1.98593 12.9703 2.00178C13.6086 2.04095 14.3677 2.65842 14.3677 2.65842L21.9991 10.2906V18.4477H18.4467V22H10.1571L2.65747 14.5004C2.25249 14.0837 2 13.4962 2 12.9213C2 12.6554 2.14999 12.2396 2.26332 12.0005L5.42067 5.42162ZM5.98648 5.98743V15.8095C5.98814 16.2619 6.00398 16.6628 6.40146 17.0661L10.5029 21.1667H17.6134V17.6144L5.98648 5.98743ZM16.0318 5.42245C15.2827 4.67582 14.5244 3.93919 13.7486 3.22006C13.497 2.99757 13.2761 2.83008 12.857 2.83508C12.5487 2.84674 12.132 2.99757 12.132 2.99757L7.28392 5.42162L16.0318 5.42245Z" fill="#202020"/>
</svg>
