<svg width="24" height="24" viewBox="0 0 24 24" fill="none" xmlns="http://www.w3.org/2000/svg">
<path d="M3.00001 17.25V21H6.75001L17.81 9.93L14.06 6.18L3.00001 17.25ZM22.61 18.36L18.36 22.61L13.16 17.41L14.93 15.64L15.93 16.64L18.4 14.16L19.82 15.58L18.36 17L19.42 18L20.84 16.6L22.61 18.36ZM6.61001 10.83L1.39001 5.64L5.64001 1.39L7.40001 3.16L4.93001 5.64L6.00001 6.7L8.46001 4.22L9.88001 5.64L8.46001 7.05L9.46001 8.05L6.61001 10.83ZM20.71 7C21.1 6.61 21.1 6 20.71 5.59L18.37 3.29C18 2.9 17.35 2.9 16.96 3.29L15.12 5.12L18.87 8.87L20.71 7Z" fill="#202020"/>
</svg>
