<svg width="24" height="24" viewBox="0 0 24 24" fill="none" xmlns="http://www.w3.org/2000/svg">
<mask id="mask0_30_1768" style="mask-type:alpha" maskUnits="userSpaceOnUse" x="0" y="-1" width="25" height="25">
<rect x="0.214233" y="-0.0155334" width="24" height="24" fill="#D9D9D9"/>
</mask>
<g mask="url(#mask0_30_1768)">
<path d="M12 16.5L6.375 10.875L7.95 9.24375L10.875 12.1688V3H13.125V12.1688L16.05 9.24375L17.625 10.875L12 16.5ZM5.25 21C4.63125 21 4.10156 20.7797 3.66094 20.3391C3.22031 19.8984 3 19.3687 3 18.75V15.375H5.25V18.75H18.75V15.375H21V18.75C21 19.3687 20.7797 19.8984 20.3391 20.3391C19.8984 20.7797 19.3687 21 18.75 21H5.25Z" fill="#202020"/>
</g>
</svg>
