<svg width="24" height="24" viewBox="0 0 24 24" fill="none" xmlns="http://www.w3.org/2000/svg">
<path d="M8.5 2C7.70435 2 6.94129 2.31607 6.37868 2.87868C5.81607 3.44129 5.5 4.20435 5.5 5C5.5 5.79565 5.81607 6.55871 6.37868 7.12132C6.94129 7.68393 7.70435 8 8.5 8H15.5C16.2957 8 17.0587 7.68393 17.6213 7.12132C18.1839 6.55871 18.5 5.79565 18.5 5C18.5 4.20435 18.1839 3.44129 17.6213 2.87868C17.0587 2.31607 16.2957 2 15.5 2H8.5ZM15.5 9C14.7044 9 13.9413 9.31607 13.3787 9.87868C12.8161 10.4413 12.5 11.2044 12.5 12C12.5 12.7956 12.8161 13.5587 13.3787 14.1213C13.9413 14.6839 14.7044 15 15.5 15C16.2957 15 17.0587 14.6839 17.6213 14.1213C18.1839 13.5587 18.5 12.7956 18.5 12C18.5 11.2044 18.1839 10.4413 17.6213 9.87868C17.0587 9.31607 16.2957 9 15.5 9ZM5.5 12C5.5 11.2044 5.81607 10.4413 6.37868 9.87868C6.94129 9.31607 7.70435 9 8.5 9H11.5V15H8.5C7.70435 15 6.94129 14.6839 6.37868 14.1213C5.81607 13.5587 5.5 12.7956 5.5 12ZM8.5 16C7.90666 16 7.32664 16.1759 6.83329 16.5056C6.33994 16.8352 5.95543 17.3038 5.72836 17.8519C5.5013 18.4001 5.44189 19.0033 5.55765 19.5853C5.6734 20.1672 5.95912 20.7018 6.37868 21.1213C6.79824 21.5409 7.33279 21.8266 7.91473 21.9424C8.49667 22.0581 9.09987 21.9987 9.64805 21.7716C10.1962 21.5446 10.6648 21.1601 10.9944 20.6667C11.3241 20.1734 11.5 19.5933 11.5 19V16H8.5Z" fill="#202020"/>
</svg>
