<svg width="24" height="24" viewBox="0 0 24 24" fill="none" xmlns="http://www.w3.org/2000/svg">
<path d="M21 5.59V18.39C21 18.8367 20.8526 19.2367 20.5579 19.59C20.2632 19.9367 19.8665 20.17 19.3678 20.29L12.8728 21.94C12.7821 21.96 12.6801 21.98 12.5668 22H12.3174C12.068 22 11.8413 21.97 11.6373 21.91C11.4332 21.85 11.2254 21.77 11.0139 21.67L6.76322 19.55C6.60453 19.47 6.47985 19.3667 6.38917 19.24C6.29849 19.1133 6.25315 18.97 6.25315 18.81C6.25315 18.57 6.35139 18.3667 6.54786 18.2C6.73678 18.0333 6.96725 17.95 7.23929 17.95H12.7481V6.14L8.5995 7.44C8.27456 7.54667 8.01008 7.73333 7.80605 8C7.60202 8.25333 7.5 8.53667 7.5 8.85V15.58C7.5 15.86 7.42065 16.1133 7.26196 16.34C7.11083 16.5667 6.89547 16.7467 6.61587 16.88L4.66625 17.82C4.48489 17.9067 4.30353 17.95 4.12217 17.95C3.81234 17.95 3.54786 17.8533 3.32872 17.66C3.10957 17.4667 3 17.23 3 16.95V7.47C3 7.12333 3.10202 6.8 3.30605 6.5C3.51763 6.16667 3.79345 5.91333 4.1335 5.74L11.1159 2.24C11.2746 2.16 11.4446 2.1 11.6259 2.06C11.8073 2.02 11.9887 2 12.17 2C12.2985 2 12.4156 2.01 12.5214 2.03C12.6272 2.04333 12.7443 2.06667 12.8728 2.1L19.3678 3.69C19.6171 3.75 19.84 3.84 20.0365 3.96C20.233 4.08 20.403 4.22333 20.5466 4.39C20.6977 4.56333 20.8111 4.75 20.8866 4.95C20.9622 5.15667 21 5.37 21 5.59ZM19.5038 18.39V5.59C19.5038 5.43667 19.4584 5.30333 19.3678 5.19C19.2544 5.06333 19.1146 4.98667 18.9484 4.96L15.7519 4.18C15.5176 4.12 15.2683 4.06 15.0038 4C14.7544 3.92667 14.5088 3.86333 14.267 3.81V20.21L18.9484 19C19.1146 18.9733 19.2544 18.9033 19.3678 18.79C19.4584 18.6767 19.5038 18.5433 19.5038 18.39Z" fill="#202020"/>
</svg>
