<svg width="24" height="24" viewBox="0 0 24 24" fill="none" xmlns="http://www.w3.org/2000/svg">
<path d="M14.4719 9.33333C15.2367 9.33333 15.8573 9.954 15.8573 10.7187V16.0617C15.8573 17.2167 15.3985 18.3244 14.5818 19.1411C13.7651 19.9578 12.6574 20.4167 11.5024 20.4167C10.3474 20.4167 9.23967 19.9578 8.42296 19.1411C7.60624 18.3244 7.14742 17.2167 7.14742 16.0617V10.7187C7.14742 9.954 7.76729 9.33333 8.53283 9.33333H14.4719ZM3.38542 9.33333L6.8545 9.33175C6.56922 9.67551 6.39747 10.0992 6.36288 10.5446L6.35496 10.7187V16.0617C6.35496 16.9587 6.58533 17.8026 6.98829 18.5372C6.44595 18.7741 5.85314 18.8721 5.26341 18.8224C4.67369 18.7727 4.10564 18.5769 3.61057 18.2527C3.1155 17.9284 2.709 17.4859 2.42781 16.9652C2.14662 16.4444 1.99959 15.8619 2 15.27V10.7187C2 10.5367 2.03586 10.3565 2.10554 10.1884C2.17521 10.0203 2.27733 9.86749 2.40606 9.73883C2.53479 9.61017 2.68761 9.50814 2.85579 9.43856C3.02397 9.36899 3.20342 9.33323 3.38542 9.33333ZM16.151 9.33175L19.6146 9.33333C20.3793 9.33333 21 9.954 21 10.7187V15.2708C21.0002 15.8623 20.8532 16.4446 20.5721 16.9651C20.2911 17.4855 19.8848 17.9278 19.3901 18.252C18.8953 18.5762 18.3277 18.7721 17.7383 18.822C17.1489 18.872 16.5563 18.7744 16.0141 18.538L16.0584 18.4573C16.398 17.8137 16.6047 17.0885 16.6427 16.3198L16.649 16.0617V10.7187C16.649 10.1915 16.4622 9.70858 16.151 9.33175ZM11.5 3C11.8639 3 12.2242 3.07167 12.5604 3.21092C12.8965 3.35016 13.202 3.55426 13.4593 3.81156C13.7166 4.06885 13.9207 4.37431 14.0599 4.71048C14.1992 5.04665 14.2708 5.40696 14.2708 5.77083C14.2708 6.1347 14.1992 6.49501 14.0599 6.83119C13.9207 7.16736 13.7166 7.47281 13.4593 7.73011C13.202 7.9874 12.8965 8.1915 12.5604 8.33075C12.2242 8.47 11.8639 8.54167 11.5 8.54167C10.7651 8.54167 10.0604 8.24974 9.54073 7.73011C9.02109 7.21048 8.72917 6.5057 8.72917 5.77083C8.72917 5.03596 9.02109 4.33119 9.54073 3.81156C10.0604 3.29193 10.7651 3 11.5 3ZM17.8357 3.79167C18.1476 3.79167 18.4564 3.8531 18.7446 3.97245C19.0327 4.09181 19.2945 4.26675 19.5151 4.48729C19.7356 4.70783 19.9106 4.96965 20.0299 5.25779C20.1493 5.54594 20.2107 5.85478 20.2107 6.16667C20.2107 6.47856 20.1493 6.78739 20.0299 7.07554C19.9106 7.36369 19.7356 7.62551 19.5151 7.84605C19.2945 8.06658 19.0327 8.24153 18.7446 8.36088C18.4564 8.48024 18.1476 8.54167 17.8357 8.54167C17.2058 8.54167 16.6017 8.29144 16.1563 7.84605C15.7109 7.40065 15.4607 6.79656 15.4607 6.16667C15.4607 5.53678 15.7109 4.93269 16.1563 4.48729C16.6017 4.04189 17.2058 3.79167 17.8357 3.79167ZM5.16429 3.79167C5.47618 3.79167 5.78502 3.8531 6.07317 3.97245C6.36131 4.09181 6.62313 4.26675 6.84367 4.48729C7.06421 4.70783 7.23915 4.96965 7.35851 5.25779C7.47786 5.54594 7.53929 5.85478 7.53929 6.16667C7.53929 6.47856 7.47786 6.78739 7.35851 7.07554C7.23915 7.36369 7.06421 7.62551 6.84367 7.84605C6.62313 8.06658 6.36131 8.24153 6.07317 8.36088C5.78502 8.48024 5.47618 8.54167 5.16429 8.54167C4.5344 8.54167 3.93031 8.29144 3.48491 7.84605C3.03952 7.40065 2.78929 6.79656 2.78929 6.16667C2.78929 5.53678 3.03952 4.93269 3.48491 4.48729C3.93031 4.04189 4.5344 3.79167 5.16429 3.79167Z" fill="#202020"/>
</svg>
