<svg width="24" height="24" viewBox="0 0 24 24" fill="none" xmlns="http://www.w3.org/2000/svg">
<path d="M3.667 12C3.66672 13.565 4.10713 15.0985 4.93781 16.4249C5.76848 17.7513 6.95586 18.817 8.364 19.5L4.388 8.607C3.91138 9.6746 3.66568 10.8308 3.667 12ZM12.147 12.729L9.646 19.994C11.3247 20.4882 13.1163 20.4417 14.767 19.861C14.7437 19.8245 14.7236 19.786 14.707 19.746L12.147 12.729ZM17.626 11.579C17.6148 10.7641 17.3769 9.96836 16.939 9.281C16.4911 8.71764 16.2076 8.04139 16.12 7.327C16.11 6.94527 16.2518 6.57515 16.5142 6.29774C16.7766 6.02033 17.1383 5.85825 17.52 5.847C17.557 5.847 17.592 5.852 17.627 5.855C16.7374 5.04 15.6813 4.42795 14.5319 4.06119C13.3825 3.69444 12.1671 3.58171 10.9698 3.73083C9.77253 3.87994 8.62194 4.28733 7.59758 4.92481C6.57323 5.5623 5.69956 6.41468 5.037 7.423C5.233 7.429 5.417 7.433 5.574 7.433C6.445 7.433 7.794 7.327 7.794 7.327C7.88245 7.32453 7.96846 7.35614 8.03427 7.41529C8.10007 7.47445 8.14063 7.55662 8.14756 7.64483C8.1545 7.73304 8.12727 7.82054 8.07152 7.88925C8.01577 7.95796 7.93575 8.00262 7.848 8.014C7.848 8.014 7.396 8.066 6.894 8.093L9.929 17.119L11.753 11.649L10.454 8.093C10.005 8.066 9.58 8.013 9.58 8.013C9.494 7.99979 9.41617 7.95458 9.3621 7.88641C9.30802 7.81825 9.2817 7.73217 9.2884 7.64542C9.29511 7.55868 9.33434 7.47766 9.39824 7.41862C9.46214 7.35957 9.54599 7.32684 9.633 7.327C9.633 7.327 11.009 7.433 11.828 7.433C12.699 7.433 14.049 7.327 14.049 7.327C14.0941 7.32352 14.1395 7.32896 14.1825 7.34301C14.2255 7.35705 14.2653 7.37943 14.2997 7.40887C14.334 7.43831 14.3622 7.47422 14.3827 7.51457C14.4032 7.55491 14.4155 7.59889 14.419 7.644C14.4225 7.68911 14.417 7.73446 14.403 7.77747C14.3889 7.82048 14.3666 7.8603 14.3371 7.89465C14.3077 7.92901 14.2718 7.95723 14.2314 7.97771C14.1911 7.99819 14.1471 8.01052 14.102 8.014C14.102 8.014 13.65 8.066 13.149 8.093L16.16 17.051L17.02 14.326C17.356 13.446 17.56 12.519 17.626 11.579ZM19.369 8.86C19.3545 9.88685 19.1392 10.9009 18.735 11.845L16.19 19.204C18.0672 18.112 19.444 16.3305 20.0273 14.2386C20.6106 12.1467 20.3543 9.90975 19.313 8.004C19.351 8.287 19.369 8.574 19.369 8.86ZM12 2C6.477 2 2 6.477 2 12C2 17.523 6.477 22 12 22C17.523 22 22 17.523 22 12C22 6.477 17.523 2 12 2ZM15.659 20.662C14.2186 21.2715 12.6487 21.5114 11.0919 21.36C9.53522 21.2086 8.04099 20.6706 6.745 19.795C5.23335 18.7747 4.04992 17.3381 3.338 15.659C2.72835 14.2186 2.48832 12.6487 2.63973 11.0919C2.79115 9.53516 3.3292 8.04092 4.205 6.745C5.22522 5.23353 6.66192 4.0504 8.341 3.339C9.78136 2.72938 11.3512 2.48928 12.9079 2.64052C14.4646 2.79176 15.9589 3.32953 17.255 4.205C18.7666 5.22529 19.9501 6.66194 20.662 8.341C21.2717 9.7814 21.5117 11.3513 21.3603 12.9081C21.2089 14.4648 20.6708 15.9591 19.795 17.255C18.7749 18.7668 17.3382 19.9503 15.659 20.662Z" fill="#202020"/>
</svg>
